<!-- icon666.com - MILLIONS vector ICONS FREE --><svg xmlns="http://www.w3.org/2000/svg" xmlns:xlink="http://www.w3.org/1999/xlink" version="1.1" id="Layer_1" x="0px" y="0px" viewBox="0 0 505 505" style="enable-background:new 0 0 505 505;" xml:space="preserve"><g><g><path style="fill:#EFCF4A;" d="M142.396,286.134H96.99c-12.611,0-22.835-10.224-22.835-22.835v-21.599 c0-12.611,10.224-22.835,22.835-22.835h45.406c12.611,0,22.835,10.224,22.835,22.835v21.599 C165.231,275.911,155.007,286.134,142.396,286.134z"></path><path style="fill:#60BEC8;" d="M408.01,286.134h-45.406c-12.611,0-22.835-10.224-22.835-22.835v-21.599 c0-12.611,10.224-22.835,22.835-22.835h45.406c12.611,0,22.835,10.224,22.835,22.835v21.599 C430.845,275.911,420.621,286.134,408.01,286.134z"></path><path style="fill:#FC6947;" d="M275.203,74.769h-45.406c-12.611,0-22.835-10.224-22.835-22.835V30.335 c0-12.611,10.224-22.835,22.835-22.835h45.406c12.611,0,22.835,10.224,22.835,22.835v21.599 C298.038,64.545,287.814,74.769,275.203,74.769z"></path><g><g><path style="fill:#EFCF4A;" d="M75.993,497.5H30.587c-12.611,0-22.835-10.224-22.835-22.835v-21.599 c0-12.611,10.224-22.835,22.835-22.835h45.406c12.611,0,22.835,10.224,22.835,22.835v21.599 C98.828,487.276,88.604,497.5,75.993,497.5z"></path><path style="fill:#EFCF4A;" d="M208.799,497.5h-45.406c-12.611,0-22.835-10.224-22.835-22.835v-21.599 c0-12.611,10.224-22.835,22.835-22.835h45.406c12.611,0,22.835,10.224,22.835,22.835v21.599 C231.635,487.276,221.411,497.5,208.799,497.5z"></path></g><g><path style="fill:#60BEC8;" d="M341.606,497.5h-45.406c-12.611,0-22.835-10.224-22.835-22.835v-21.599 c0-12.611,10.224-22.835,22.835-22.835h45.406c12.611,0,22.835,10.224,22.835,22.835v21.599 C364.441,487.276,354.218,497.5,341.606,497.5z"></path><path style="fill:#60BEC8;" d="M474.413,497.5h-45.406c-12.611,0-22.835-10.224-22.835-22.835v-21.599 c0-12.611,10.224-22.835,22.835-22.835h45.406c12.611,0,22.835,10.224,22.835,22.835v21.599 C497.248,487.276,487.025,497.5,474.413,497.5z"></path></g></g></g><g><path d="M96.99,293.634h45.406c16.727,0,30.335-13.608,30.335-30.335v-21.599c0-16.727-13.608-30.335-30.335-30.335H96.99 c-16.727,0-30.335,13.608-30.335,30.335v21.599C66.655,280.026,80.263,293.634,96.99,293.634z M81.655,241.701 c0-8.456,6.879-15.335,15.335-15.335h45.406c8.456,0,15.335,6.879,15.335,15.335v21.599c0,8.456-6.879,15.335-15.335,15.335H96.99 c-8.456,0-15.335-6.879-15.335-15.335V241.701z"></path><path d="M362.604,293.634h45.406c16.727,0,30.335-13.608,30.335-30.335v-21.599c0-16.727-13.608-30.335-30.335-30.335h-45.406 c-16.727,0-30.335,13.608-30.335,30.335v21.599C332.269,280.026,345.877,293.634,362.604,293.634z M347.269,241.701 c0-8.456,6.879-15.335,15.335-15.335h45.406c8.456,0,15.335,6.879,15.335,15.335v21.599c0,8.456-6.879,15.335-15.335,15.335 h-45.406c-8.456,0-15.335-6.879-15.335-15.335V241.701z"></path><path d="M229.797,82.269h45.406c16.727,0,30.335-13.608,30.335-30.335V30.335C305.538,13.608,291.929,0,275.203,0h-45.406 c-16.727,0-30.335,13.608-30.335,30.335v21.599C199.462,68.661,213.071,82.269,229.797,82.269z M214.462,30.335 c0-8.456,6.879-15.335,15.335-15.335h45.406c8.456,0,15.335,6.879,15.335,15.335v21.599c0,8.456-6.879,15.335-15.335,15.335 h-45.406c-8.456,0-15.335-6.879-15.335-15.335V30.335z"></path><path d="M75.992,422.731H30.587c-16.727,0-30.335,13.608-30.335,30.335v21.599c0,6.614,2.092,12.901,6.05,18.181 c2.484,3.314,7.186,3.987,10.5,1.502c3.314-2.484,3.987-7.186,1.502-10.5c-1.997-2.664-3.052-5.839-3.052-9.184v-21.599 c0-8.456,6.879-15.335,15.335-15.335h45.406c8.456,0,15.335,6.879,15.335,15.335v21.599c0,8.456-6.879,15.335-15.335,15.335 H35.587c-4.142,0-7.5,3.358-7.5,7.5s3.358,7.5,7.5,7.5h40.405c16.727,0,30.335-13.608,30.335-30.335v-21.599 C106.327,436.339,92.719,422.731,75.992,422.731z"></path><path d="M208.8,422.731h-45.406c-16.727,0-30.335,13.608-30.335,30.335v21.599c0,16.727,13.608,30.335,30.335,30.335H208.8 c16.727,0,30.335-13.608,30.335-30.335v-21.599C239.135,436.339,225.526,422.731,208.8,422.731z M224.135,474.665 c0,8.456-6.879,15.335-15.335,15.335h-45.406c-8.456,0-15.335-6.879-15.335-15.335v-21.599c0-8.456,6.879-15.335,15.335-15.335 H208.8c8.456,0,15.335,6.879,15.335,15.335V474.665z"></path><path d="M341.606,422.731H296.2c-16.727,0-30.335,13.608-30.335,30.335v21.599c0,16.727,13.608,30.335,30.335,30.335h45.406 c16.727,0,30.335-13.608,30.335-30.335v-21.599C371.942,436.339,358.333,422.731,341.606,422.731z M356.942,474.665 c0,8.456-6.879,15.335-15.335,15.335H296.2c-8.456,0-15.335-6.879-15.335-15.335v-21.599c0-8.456,6.879-15.335,15.335-15.335 h45.406c8.456,0,15.335,6.879,15.335,15.335V474.665z"></path><path d="M474.413,422.731h-45.406c-16.727,0-30.335,13.608-30.335,30.335v21.599c0,16.727,13.608,30.335,30.335,30.335h45.406 c16.727,0,30.335-13.608,30.335-30.335v-21.599C504.748,436.339,491.14,422.731,474.413,422.731z M489.748,474.665 c0,8.456-6.879,15.335-15.335,15.335h-45.406c-8.456,0-15.335-6.879-15.335-15.335v-21.599c0-8.456,6.879-15.335,15.335-15.335 h45.406c8.456,0,15.335,6.879,15.335,15.335V474.665z"></path><path d="M178.596,404.769c0,4.142,3.358,7.5,7.5,7.5s7.5-3.358,7.5-7.5v-40c0-4.142-3.358-7.5-7.5-7.5h-58.903v-46.5 c0-4.142-3.358-7.5-7.5-7.5s-7.5,3.358-7.5,7.5v46.5H53.29c-4.142,0-7.5,3.358-7.5,7.5v40c0,4.142,3.358,7.5,7.5,7.5 s7.5-3.358,7.5-7.5v-32.5h117.807V404.769z"></path><path d="M444.21,404.769c0,4.142,3.358,7.5,7.5,7.5s7.5-3.358,7.5-7.5v-40c0-4.142-3.358-7.5-7.5-7.5h-58.903v-46.5 c0-4.142-3.358-7.5-7.5-7.5s-7.5,3.358-7.5,7.5v46.5h-58.903c-4.142,0-7.5,3.358-7.5,7.5v40c0,4.142,3.358,7.5,7.5,7.5 s7.5-3.358,7.5-7.5v-32.5H444.21V404.769z"></path><path d="M347.92,162.635h29.887v32.5c0,4.142,3.358,7.5,7.5,7.5s7.5-3.358,7.5-7.5v-40c0-4.142-3.358-7.5-7.5-7.5H347.92 c-4.142,0-7.5,3.358-7.5,7.5S343.778,162.635,347.92,162.635z"></path><path d="M330.418,155.135c0-4.142-3.358-7.5-7.5-7.5H260v-46.5c0-4.142-3.358-7.5-7.5-7.5s-7.5,3.358-7.5,7.5v46.5H119.693 c-4.142,0-7.5,3.358-7.5,7.5v40c0,4.142,3.358,7.5,7.5,7.5s7.5-3.358,7.5-7.5v-32.5h195.725 C327.06,162.635,330.418,159.277,330.418,155.135z"></path></g></g></svg>